<?xml version="1.0" encoding="utf-8"?>
<svg xmlns="http://www.w3.org/2000/svg" xmlns:xlink="http://www.w3.org/1999/xlink" width="300" height="300" viewBox="0 0 1200 1200">
<defs>
  <clipPath id="clip790">
    <rect x="0" y="0" width="1200" height="1200"/>
  </clipPath>
</defs>
<path clip-path="url(#clip790)" d="
M0 1200 L1200 1200 L1200 0 L0 0  Z
  " fill="#000000" fill-rule="evenodd" fill-opacity="0"/>
<defs>
  <clipPath id="clip791">
    <rect x="240" y="120" width="841" height="841"/>
  </clipPath>
</defs>
<path clip-path="url(#clip790)" d="
M211.442 1038.74 L1168.5 1038.74 L1168.5 81.6752 L211.442 81.6752  Z
  " fill="#000000" fill-rule="evenodd" fill-opacity="0"/>
<defs>
  <clipPath id="clip792">
    <rect x="211" y="81" width="958" height="958"/>
  </clipPath>
</defs>
<circle clip-path="url(#clip792)" cx="640.47" cy="609.709" r="72" fill="#4063d8" fill-rule="evenodd" fill-opacity="1" stroke="#222222" stroke-opacity="1" stroke-width="2.4"/>
<polyline clip-path="url(#clip792)" style="stroke:#389826; stroke-linecap:butt; stroke-linejoin:round; stroke-width:10; stroke-opacity:1; fill:none" points="
  640.47,873.726 659.093,873.068 677.624,871.099 695.97,867.827 714.039,863.269 731.741,857.448 748.989,850.393 765.697,842.138 781.78,832.726 797.159,822.203 
  811.758,810.62 825.503,798.038 838.327,784.516 850.165,770.124 860.958,754.933 870.653,739.018 879.201,722.459 886.559,705.339 892.692,687.742 897.568,669.756 
  901.163,651.471 903.46,632.978 904.446,614.369 904.117,595.736 902.475,577.174 899.527,558.773 895.289,540.627 889.781,522.824 883.031,505.454 875.073,488.604 
  865.946,472.357 855.696,456.794 844.373,441.994 832.035,428.028 818.742,414.968 804.561,402.878 789.562,391.818 773.821,381.844 757.416,373.005 740.428,365.346 
  722.942,358.904 705.045,353.711 686.826,349.794 668.376,347.171 649.788,345.857 631.152,345.857 612.564,347.171 594.114,349.794 575.895,353.711 557.998,358.904 
  540.512,365.346 523.524,373.005 507.119,381.844 491.377,391.818 476.379,402.878 462.198,414.968 448.905,428.028 436.567,441.994 425.244,456.794 414.994,472.357 
  405.867,488.604 397.909,505.454 391.159,522.824 385.651,540.627 381.413,558.773 378.465,577.174 376.823,595.736 376.494,614.369 377.48,632.978 379.777,651.471 
  383.372,669.756 388.248,687.742 394.381,705.339 401.739,722.459 410.287,739.018 419.982,754.933 430.775,770.124 442.613,784.516 455.436,798.038 469.182,810.62 
  483.781,822.203 499.16,832.726 515.243,842.138 531.951,850.393 549.198,857.448 566.901,863.269 584.97,867.827 603.316,871.099 621.846,873.068 640.47,873.726 
  
  "/>
<circle clip-path="url(#clip792)" cx="455.606" cy="421.214" r="46" fill="#389826" fill-rule="evenodd" fill-opacity="1" stroke="#222222" stroke-opacity="1" stroke-width="2.4"/>
<polyline clip-path="url(#clip792)" style="stroke:#cb3c33; stroke-linecap:butt; stroke-linejoin:round; stroke-width:10; stroke-opacity:1; fill:none" points="
  1104.62,341.732 1084.35,309.801 1061.49,279.706 1036.23,251.673 1008.79,225.905 979.382,202.578 948.27,181.838 915.71,163.803 881.967,148.56 847.312,136.166 
  812.011,126.647 776.329,120.002 740.522,116.203 704.834,115.199 669.495,116.916 634.722,121.262 600.715,128.128 567.655,137.391 535.705,148.92 505.012,162.574 
  475.704,178.205 447.891,195.663 421.667,214.796 397.111,235.452 374.287,257.479 353.245,280.73 334.024,305.061 316.651,330.329 301.143,356.4 287.511,383.143 
  275.753,410.432 265.867,438.149 257.839,466.179 251.655,494.412 247.294,522.746 244.732,551.081 243.944,579.323 244.901,607.382 247.571,635.171 251.923,662.607 
  257.923,689.612 265.537,716.106 274.727,742.017 285.459,767.27 297.693,791.795 311.391,815.52 326.512,838.378 343.017,860.298 360.86,881.212 379.999,901.053 
  400.385,919.752 421.97,937.239 444.701,953.446 468.522,968.304 493.374,981.742 519.194,993.691 545.912,1004.08 573.455,1012.84 601.744,1019.91 630.691,1025.2 
  660.203,1028.66 690.179,1030.23 720.511,1029.84 751.08,1027.42 781.761,1022.94 812.418,1016.35 842.907,1007.59 873.073,996.655 902.755,983.511 931.781,968.153 
  959.972,950.586 987.142,930.832 1013.1,908.928 1037.65,884.929 1060.6,858.91 1081.75,830.969 1100.91,801.224 1117.88,769.814 1132.5,736.905 1144.58,702.681 
  1153.99,667.351 1160.59,631.141 1164.26,594.297 1164.92,557.082 1162.51,519.769 1157.01,482.641 1148.42,445.987 1136.77,410.095 1122.14,375.251 1104.62,341.732 
  
  "/>
<circle clip-path="url(#clip792)" cx="1057.86" cy="275.38" r="32" fill="#cb3c33" fill-rule="evenodd" fill-opacity="1" stroke="#222222" stroke-opacity="1" stroke-width="2.4"/>
<polyline clip-path="url(#clip792)" style="stroke:#9558b2; stroke-linecap:butt; stroke-linejoin:round; stroke-width:10; stroke-opacity:1; fill:none" points="
  1000.7,308.382 1002.91,311.941 1005.34,315.353 1007.98,318.604 1010.82,321.68 1013.85,324.571 1017.06,327.263 1020.44,329.746 1023.96,332.011 1027.62,334.047 
  1031.4,335.847 1035.29,337.404 1039.27,338.711 1043.32,339.763 1047.44,340.555 1051.59,341.085 1055.77,341.351 1059.96,341.351 1064.14,341.085 1068.29,340.555 
  1072.41,339.763 1076.46,338.711 1080.44,337.404 1084.33,335.847 1088.11,334.047 1091.77,332.011 1095.29,329.746 1098.67,327.263 1101.87,324.571 1104.9,321.68 
  1107.75,318.604 1110.39,315.353 1112.82,311.941 1115.03,308.382 1117,304.69 1118.74,300.88 1120.24,296.968 1121.48,292.968 1122.47,288.898 1123.2,284.773 
  1123.66,280.611 1123.86,276.427 1123.79,272.239 1123.46,268.064 1122.87,263.919 1122.01,259.819 1120.89,255.782 1119.52,251.824 1117.9,247.961 1116.04,244.208 
  1113.95,240.581 1111.63,237.094 1109.09,233.761 1106.35,230.596 1103.41,227.611 1100.29,224.818 1097,222.229 1093.55,219.854 1089.96,217.702 1086.23,215.783 
  1082.4,214.104 1078.46,212.671 1074.44,211.491 1070.36,210.569 1066.22,209.907 1062.05,209.509 1057.86,209.376 1053.68,209.509 1049.51,209.907 1045.37,210.569 
  1041.29,211.491 1037.27,212.671 1033.33,214.104 1029.5,215.783 1025.77,217.702 1022.18,219.854 1018.73,222.229 1015.44,224.818 1012.32,227.611 1009.38,230.596 
  1006.64,233.761 1004.1,237.094 1001.78,240.581 999.684,244.208 997.825,247.961 996.206,251.824 994.837,255.782 993.72,259.819 992.863,263.919 992.267,268.064 
  991.935,272.239 991.868,276.427 992.067,280.611 992.532,284.773 993.259,288.898 994.246,292.968 995.49,296.968 996.985,300.88 998.725,304.69 1000.7,308.382 
  
  "/>
<circle clip-path="url(#clip792)" cx="1002.91" cy="311.941" r="21" fill="#9558b2" fill-rule="evenodd" fill-opacity="1" stroke="#222222" stroke-opacity="1" stroke-width="2.4"/>
</svg>
