<?xml version="1.0" encoding="utf-8"?>
<svg xmlns="http://www.w3.org/2000/svg" xmlns:xlink="http://www.w3.org/1999/xlink" width="300" height="300" viewBox="0 0 1200 1200">
<defs>
  <clipPath id="clip870">
    <rect x="0" y="0" width="1200" height="1200"/>
  </clipPath>
</defs>
<path clip-path="url(#clip870)" d="
M0 1200 L1200 1200 L1200 0 L0 0  Z
  " fill="#000000" fill-rule="evenodd" fill-opacity="0"/>
<defs>
  <clipPath id="clip871">
    <rect x="240" y="120" width="841" height="841"/>
  </clipPath>
</defs>
<path clip-path="url(#clip870)" d="
M0 1200 L1200 1200 L1200 0 L0 0  Z
  " fill="#000000" fill-rule="evenodd" fill-opacity="0"/>
<circle clip-path="url(#clip870)" cx="537.931" cy="662.069" r="72" fill="#4063d8" fill-rule="evenodd" fill-opacity="1" stroke="#222222" stroke-opacity="1" stroke-width="2.4"/>
<polyline clip-path="url(#clip870)" style="stroke:#389826; stroke-linecap:butt; stroke-linejoin:round; stroke-width:10; stroke-opacity:1; fill:none" points="
  537.931,993.103 561.282,992.279 584.516,989.809 607.519,985.707 630.174,979.992 652.371,972.693 673.997,963.847 694.945,953.497 715.111,941.696 734.394,928.501 
  752.699,913.979 769.933,898.202 786.012,881.249 800.854,863.204 814.387,844.156 826.543,824.202 837.261,803.439 846.487,781.973 854.176,759.909 860.29,737.358 
  864.798,714.431 867.677,691.244 868.914,667.911 868.502,644.549 866.442,621.275 862.746,598.204 857.432,575.451 850.527,553.129 842.063,531.35 832.085,510.223 
  820.641,489.852 807.789,470.339 793.592,451.781 778.122,434.271 761.455,417.895 743.674,402.736 724.869,388.869 705.132,376.363 684.562,365.281 663.262,355.677 
  641.337,347.6 618.897,341.089 596.054,336.177 572.921,332.889 549.614,331.241 526.248,331.241 502.941,332.889 479.808,336.177 456.965,341.089 434.525,347.6 
  412.6,355.677 391.3,365.281 370.73,376.363 350.993,388.869 332.188,402.736 314.407,417.895 297.74,434.271 282.27,451.781 268.073,470.339 255.221,489.852 
  243.777,510.223 233.799,531.35 225.336,553.129 218.43,575.451 213.116,598.204 209.42,621.275 207.36,644.549 206.948,667.911 208.185,691.244 211.064,714.431 
  215.572,737.358 221.686,759.909 229.375,781.973 238.601,803.439 249.319,824.202 261.475,844.156 275.008,863.204 289.85,881.249 305.929,898.202 323.164,913.979 
  341.468,928.501 360.751,941.696 380.917,953.497 401.865,963.847 423.491,972.693 445.688,979.992 468.343,985.707 491.346,989.809 514.58,992.279 537.931,993.103 
  
  "/>
<circle clip-path="url(#clip870)" cx="306.142" cy="425.727" r="46" fill="#389826" fill-rule="evenodd" fill-opacity="1" stroke="#222222" stroke-opacity="1" stroke-width="2.4"/>
<polyline clip-path="url(#clip870)" style="stroke:#cb3c33; stroke-linecap:butt; stroke-linejoin:round; stroke-width:10; stroke-opacity:1; fill:none" points="
  1065.44,357.509 1042.41,321.219 1016.43,287.016 987.721,255.156 956.526,225.87 923.109,199.358 887.751,175.787 850.745,155.29 812.396,137.967 773.01,123.88 
  732.89,113.062 692.337,105.51 651.642,101.192 611.081,100.051 570.919,102.003 531.399,106.942 492.749,114.745 455.176,125.273 418.865,138.376 383.982,153.893 
  350.672,171.658 319.062,191.499 289.259,213.244 261.35,236.72 235.41,261.755 211.496,288.18 189.65,315.831 169.906,344.549 152.281,374.179 136.788,404.573 
  123.425,435.588 112.189,467.088 103.066,498.945 96.037,531.033 91.0805,563.234 88.1694,595.438 87.2737,627.535 88.3607,659.424 91.3957,691.007 96.3419,722.189 
  103.161,752.879 111.814,782.991 122.259,812.439 134.456,841.139 148.36,869.012 163.928,895.976 181.114,921.954 199.871,946.866 220.151,970.636 241.902,993.186 
  265.071,1014.44 289.603,1034.31 315.436,1052.73 342.51,1069.62 370.755,1084.89 400.099,1098.47 430.465,1110.28 461.768,1120.24 493.918,1128.26 526.817,1134.28 
  560.358,1138.22 594.426,1140 628.899,1139.55 663.641,1136.81 698.511,1131.71 733.353,1124.22 768.004,1114.27 802.288,1101.84 836.022,1086.9 869.01,1069.45 
  901.049,1049.48 931.929,1027.03 961.432,1002.14 989.337,974.86 1015.42,945.29 1039.46,913.534 1061.23,879.728 1080.52,844.031 1097.13,806.629 1110.86,767.733 
  1121.56,727.579 1129.05,686.426 1133.22,644.553 1133.97,602.257 1131.24,559.85 1124.99,517.654 1115.22,475.996 1101.99,435.205 1085.35,395.604 1065.44,357.509 
  
  "/>
<circle clip-path="url(#clip870)" cx="1079.88" cy="384.317" r="32" fill="#cb3c33" fill-rule="evenodd" fill-opacity="1" stroke="#222222" stroke-opacity="1" stroke-width="2.4"/>
<polyline clip-path="url(#clip870)" style="stroke:#9558b2; stroke-linecap:butt; stroke-linejoin:round; stroke-width:8; stroke-opacity:1; fill:none" points="
  981.687,441.007 985.48,447.12 989.653,452.981 994.19,458.565 999.071,463.85 1004.28,468.815 1009.79,473.439 1015.58,477.705 1021.64,481.595 1027.92,485.093 
  1034.42,488.185 1041.1,490.859 1047.93,493.104 1054.9,494.911 1061.96,496.272 1069.1,497.183 1076.28,497.639 1083.47,497.639 1090.65,497.183 1097.79,496.272 
  1104.85,494.911 1111.82,493.104 1118.65,490.859 1125.33,488.185 1131.83,485.093 1138.12,481.595 1144.17,477.705 1149.96,473.439 1155.47,468.815 1160.68,463.85 
  1165.56,458.565 1170.1,452.981 1174.27,447.12 1178.07,441.007 1181.46,434.665 1184.45,428.121 1187.02,421.4 1189.16,414.53 1190.85,407.538 1192.1,400.453 
  1192.9,393.302 1193.24,386.116 1193.13,378.922 1192.56,371.75 1191.53,364.629 1190.06,357.587 1188.14,350.652 1185.79,343.853 1183.01,337.218 1179.81,330.771 
  1176.22,324.541 1172.23,318.551 1167.88,312.825 1163.16,307.388 1158.12,302.261 1152.75,297.463 1147.1,293.016 1141.17,288.936 1135,285.241 1128.61,281.944 
  1122.01,279.059 1115.25,276.599 1108.35,274.572 1101.33,272.987 1094.23,271.85 1087.07,271.166 1079.88,270.938 1072.69,271.166 1065.52,271.85 1058.42,272.987 
  1051.4,274.572 1044.5,276.599 1037.74,279.059 1031.15,281.944 1024.75,285.241 1018.58,288.936 1012.65,293.016 1007,297.463 1001.64,302.261 996.589,307.388 
  991.877,312.825 987.52,318.551 983.535,324.541 979.938,330.771 976.743,337.218 973.963,343.853 971.61,350.652 969.693,357.587 968.219,364.629 967.195,371.75 
  966.625,378.922 966.511,386.116 966.853,393.302 967.651,400.453 968.9,407.538 970.596,414.53 972.733,421.4 975.3,428.121 978.289,434.665 981.687,441.007 
  
  "/>
<circle clip-path="url(#clip870)" cx="985.48" cy="447.12" r="21" fill="#9558b2" fill-rule="evenodd" fill-opacity="1" stroke="#222222" stroke-opacity="1" stroke-width="2.4"/>
</svg>
