<?xml version="1.0" encoding="utf-8"?>
<svg xmlns="http://www.w3.org/2000/svg" xmlns:xlink="http://www.w3.org/1999/xlink" width="600" height="400" viewBox="0 0 2400 1600">
<defs>
  <clipPath id="clip850">
    <rect x="0" y="0" width="2400" height="1600"/>
  </clipPath>
</defs>
<path clip-path="url(#clip850)" d="
M0 1600 L2400 1600 L2400 0 L0 0  Z
  " fill="#000000" fill-rule="evenodd" fill-opacity="0"/>
<defs>
  <clipPath id="clip851">
    <rect x="480" y="0" width="1681" height="1600"/>
  </clipPath>
</defs>
<path clip-path="url(#clip850)" d="
M239.19 1486.45 L2352.76 1486.45 L2352.76 47.2441 L239.19 47.2441  Z
  " fill="#000000" fill-rule="evenodd" fill-opacity="0"/>
<defs>
  <clipPath id="clip852">
    <rect x="239" y="47" width="2115" height="1440"/>
  </clipPath>
</defs>
<polyline clip-path="url(#clip852)" style="stroke:#808080; stroke-linecap:butt; stroke-linejoin:round; stroke-width:2; stroke-opacity:0.1; fill:none" points="
  2314.59,1486.45 2314.59,47.2441 
  "/>
<polyline clip-path="url(#clip852)" style="stroke:#808080; stroke-linecap:butt; stroke-linejoin:round; stroke-width:2; stroke-opacity:0.1; fill:none" points="
  1975.05,1486.45 1975.05,47.2441 
  "/>
<polyline clip-path="url(#clip852)" style="stroke:#808080; stroke-linecap:butt; stroke-linejoin:round; stroke-width:2; stroke-opacity:0.1; fill:none" points="
  1635.51,1486.45 1635.51,47.2441 
  "/>
<polyline clip-path="url(#clip852)" style="stroke:#808080; stroke-linecap:butt; stroke-linejoin:round; stroke-width:2; stroke-opacity:0.1; fill:none" points="
  1295.97,1486.45 1295.97,47.2441 
  "/>
<polyline clip-path="url(#clip852)" style="stroke:#808080; stroke-linecap:butt; stroke-linejoin:round; stroke-width:2; stroke-opacity:0.1; fill:none" points="
  956.433,1486.45 956.433,47.2441 
  "/>
<polyline clip-path="url(#clip852)" style="stroke:#808080; stroke-linecap:butt; stroke-linejoin:round; stroke-width:2; stroke-opacity:0.1; fill:none" points="
  616.892,1486.45 616.892,47.2441 
  "/>
<polyline clip-path="url(#clip852)" style="stroke:#808080; stroke-linecap:butt; stroke-linejoin:round; stroke-width:2; stroke-opacity:0.1; fill:none" points="
  277.351,1486.45 277.351,47.2441 
  "/>
<polyline clip-path="url(#clip850)" style="stroke:#808080; stroke-linecap:butt; stroke-linejoin:round; stroke-width:4; stroke-opacity:1; fill:none" points="
  2352.76,1486.45 239.19,1486.45 
  "/>
<polyline clip-path="url(#clip850)" style="stroke:#808080; stroke-linecap:butt; stroke-linejoin:round; stroke-width:4; stroke-opacity:1; fill:none" points="
  2314.59,1486.45 2314.59,1467.55 
  "/>
<polyline clip-path="url(#clip850)" style="stroke:#808080; stroke-linecap:butt; stroke-linejoin:round; stroke-width:4; stroke-opacity:1; fill:none" points="
  1975.05,1486.45 1975.05,1467.55 
  "/>
<polyline clip-path="url(#clip850)" style="stroke:#808080; stroke-linecap:butt; stroke-linejoin:round; stroke-width:4; stroke-opacity:1; fill:none" points="
  1635.51,1486.45 1635.51,1467.55 
  "/>
<polyline clip-path="url(#clip850)" style="stroke:#808080; stroke-linecap:butt; stroke-linejoin:round; stroke-width:4; stroke-opacity:1; fill:none" points="
  1295.97,1486.45 1295.97,1467.55 
  "/>
<polyline clip-path="url(#clip850)" style="stroke:#808080; stroke-linecap:butt; stroke-linejoin:round; stroke-width:4; stroke-opacity:1; fill:none" points="
  956.433,1486.45 956.433,1467.55 
  "/>
<polyline clip-path="url(#clip850)" style="stroke:#808080; stroke-linecap:butt; stroke-linejoin:round; stroke-width:4; stroke-opacity:1; fill:none" points="
  616.892,1486.45 616.892,1467.55 
  "/>
<polyline clip-path="url(#clip850)" style="stroke:#808080; stroke-linecap:butt; stroke-linejoin:round; stroke-width:4; stroke-opacity:1; fill:none" points="
  277.351,1486.45 277.351,1467.55 
  "/>
<path clip-path="url(#clip850)" d="M2238.5 1532.02 L2268.17 1532.02 L2268.17 1535.95 L2238.5 1535.95 L2238.5 1532.02 Z" fill="#808080" fill-rule="evenodd" fill-opacity="1" /><path clip-path="url(#clip850)" d="M2279.07 1544.91 L2286.71 1544.91 L2286.71 1518.55 L2278.4 1520.21 L2278.4 1515.95 L2286.67 1514.29 L2291.34 1514.29 L2291.34 1544.91 L2298.98 1544.91 L2298.98 1548.85 L2279.07 1548.85 L2279.07 1544.91 Z" fill="#808080" fill-rule="evenodd" fill-opacity="1" /><path clip-path="url(#clip850)" d="M2308.47 1514.29 L2326.83 1514.29 L2326.83 1518.22 L2312.75 1518.22 L2312.75 1526.7 Q2313.77 1526.35 2314.79 1526.19 Q2315.81 1526 2316.83 1526 Q2322.62 1526 2326 1529.17 Q2329.37 1532.34 2329.37 1537.76 Q2329.37 1543.34 2325.9 1546.44 Q2322.43 1549.52 2316.11 1549.52 Q2313.94 1549.52 2311.67 1549.15 Q2309.42 1548.78 2307.01 1548.04 L2307.01 1543.34 Q2309.1 1544.47 2311.32 1545.03 Q2313.54 1545.58 2316.02 1545.58 Q2320.02 1545.58 2322.36 1543.48 Q2324.7 1541.37 2324.7 1537.76 Q2324.7 1534.15 2322.36 1532.04 Q2320.02 1529.94 2316.02 1529.94 Q2314.14 1529.94 2312.27 1530.35 Q2310.42 1530.77 2308.47 1531.65 L2308.47 1514.29 Z" fill="#808080" fill-rule="evenodd" fill-opacity="1" /><path clip-path="url(#clip850)" d="M2348.59 1517.37 Q2344.98 1517.37 2343.15 1520.93 Q2341.34 1524.47 2341.34 1531.6 Q2341.34 1538.71 2343.15 1542.27 Q2344.98 1545.82 2348.59 1545.82 Q2352.22 1545.82 2354.03 1542.27 Q2355.86 1538.71 2355.86 1531.6 Q2355.86 1524.47 2354.03 1520.93 Q2352.22 1517.37 2348.59 1517.37 M2348.59 1513.66 Q2354.4 1513.66 2357.45 1518.27 Q2360.53 1522.85 2360.53 1531.6 Q2360.53 1540.33 2357.45 1544.94 Q2354.4 1549.52 2348.59 1549.52 Q2342.78 1549.52 2339.7 1544.94 Q2336.64 1540.33 2336.64 1531.6 Q2336.64 1522.85 2339.7 1518.27 Q2342.78 1513.66 2348.59 1513.66 Z" fill="#808080" fill-rule="evenodd" fill-opacity="1" /><path clip-path="url(#clip850)" d="M2378.75 1517.37 Q2375.14 1517.37 2373.31 1520.93 Q2371.5 1524.47 2371.5 1531.6 Q2371.5 1538.71 2373.31 1542.27 Q2375.14 1545.82 2378.75 1545.82 Q2382.38 1545.82 2384.19 1542.27 Q2386.02 1538.71 2386.02 1531.6 Q2386.02 1524.47 2384.19 1520.93 Q2382.38 1517.37 2378.75 1517.37 M2378.75 1513.66 Q2384.56 1513.66 2387.62 1518.27 Q2390.69 1522.85 2390.69 1531.6 Q2390.69 1540.33 2387.62 1544.94 Q2384.56 1549.52 2378.75 1549.52 Q2372.94 1549.52 2369.86 1544.94 Q2366.81 1540.33 2366.81 1531.6 Q2366.81 1522.85 2369.86 1518.27 Q2372.94 1513.66 2378.75 1513.66 Z" fill="#808080" fill-rule="evenodd" fill-opacity="1" /><path clip-path="url(#clip850)" d="M1898.96 1532.02 L1928.63 1532.02 L1928.63 1535.95 L1898.96 1535.95 L1898.96 1532.02 Z" fill="#808080" fill-rule="evenodd" fill-opacity="1" /><path clip-path="url(#clip850)" d="M1939.53 1544.91 L1947.17 1544.91 L1947.17 1518.55 L1938.86 1520.21 L1938.86 1515.95 L1947.13 1514.29 L1951.8 1514.29 L1951.8 1544.91 L1959.44 1544.91 L1959.44 1548.85 L1939.53 1548.85 L1939.53 1544.91 Z" fill="#808080" fill-rule="evenodd" fill-opacity="1" /><path clip-path="url(#clip850)" d="M1978.89 1517.37 Q1975.27 1517.37 1973.45 1520.93 Q1971.64 1524.47 1971.64 1531.6 Q1971.64 1538.71 1973.45 1542.27 Q1975.27 1545.82 1978.89 1545.82 Q1982.52 1545.82 1984.33 1542.27 Q1986.15 1538.71 1986.15 1531.6 Q1986.15 1524.47 1984.33 1520.93 Q1982.52 1517.37 1978.89 1517.37 M1978.89 1513.66 Q1984.7 1513.66 1987.75 1518.27 Q1990.83 1522.85 1990.83 1531.6 Q1990.83 1540.33 1987.75 1544.94 Q1984.7 1549.52 1978.89 1549.52 Q1973.08 1549.52 1970 1544.94 Q1966.94 1540.33 1966.94 1531.6 Q1966.94 1522.85 1970 1518.27 Q1973.08 1513.66 1978.89 1513.66 Z" fill="#808080" fill-rule="evenodd" fill-opacity="1" /><path clip-path="url(#clip850)" d="M2009.05 1517.37 Q2005.44 1517.37 2003.61 1520.93 Q2001.8 1524.47 2001.8 1531.6 Q2001.8 1538.71 2003.61 1542.27 Q2005.44 1545.82 2009.05 1545.82 Q2012.68 1545.82 2014.49 1542.27 Q2016.32 1538.71 2016.32 1531.6 Q2016.32 1524.47 2014.49 1520.93 Q2012.68 1517.37 2009.05 1517.37 M2009.05 1513.66 Q2014.86 1513.66 2017.91 1518.27 Q2020.99 1522.85 2020.99 1531.6 Q2020.99 1540.33 2017.91 1544.94 Q2014.86 1549.52 2009.05 1549.52 Q2003.24 1549.52 2000.16 1544.94 Q1997.1 1540.33 1997.1 1531.6 Q1997.1 1522.85 2000.16 1518.27 Q2003.24 1513.66 2009.05 1513.66 Z" fill="#808080" fill-rule="evenodd" fill-opacity="1" /><path clip-path="url(#clip850)" d="M2039.21 1517.37 Q2035.6 1517.37 2033.77 1520.93 Q2031.96 1524.47 2031.96 1531.6 Q2031.96 1538.71 2033.77 1542.27 Q2035.6 1545.82 2039.21 1545.82 Q2042.84 1545.82 2044.65 1542.27 Q2046.48 1538.71 2046.48 1531.6 Q2046.48 1524.47 2044.65 1520.93 Q2042.84 1517.37 2039.21 1517.37 M2039.21 1513.66 Q2045.02 1513.66 2048.07 1518.27 Q2051.15 1522.85 2051.15 1531.6 Q2051.15 1540.33 2048.07 1544.94 Q2045.02 1549.52 2039.21 1549.52 Q2033.4 1549.52 2030.32 1544.94 Q2027.26 1540.33 2027.26 1531.6 Q2027.26 1522.85 2030.32 1518.27 Q2033.4 1513.66 2039.21 1513.66 Z" fill="#808080" fill-rule="evenodd" fill-opacity="1" /><path clip-path="url(#clip850)" d="M1574.5 1532.02 L1604.17 1532.02 L1604.17 1535.95 L1574.5 1535.95 L1574.5 1532.02 Z" fill="#808080" fill-rule="evenodd" fill-opacity="1" /><path clip-path="url(#clip850)" d="M1614.31 1514.29 L1632.67 1514.29 L1632.67 1518.22 L1618.59 1518.22 L1618.59 1526.7 Q1619.61 1526.35 1620.63 1526.19 Q1621.65 1526 1622.67 1526 Q1628.45 1526 1631.83 1529.17 Q1635.21 1532.34 1635.21 1537.76 Q1635.21 1543.34 1631.74 1546.44 Q1628.27 1549.52 1621.95 1549.52 Q1619.77 1549.52 1617.5 1549.15 Q1615.26 1548.78 1612.85 1548.04 L1612.85 1543.34 Q1614.94 1544.47 1617.16 1545.03 Q1619.38 1545.58 1621.86 1545.58 Q1625.86 1545.58 1628.2 1543.48 Q1630.54 1541.37 1630.54 1537.76 Q1630.54 1534.15 1628.2 1532.04 Q1625.86 1529.94 1621.86 1529.94 Q1619.98 1529.94 1618.11 1530.35 Q1616.25 1530.77 1614.31 1531.65 L1614.31 1514.29 Z" fill="#808080" fill-rule="evenodd" fill-opacity="1" /><path clip-path="url(#clip850)" d="M1654.43 1517.37 Q1650.81 1517.37 1648.99 1520.93 Q1647.18 1524.47 1647.18 1531.6 Q1647.18 1538.71 1648.99 1542.27 Q1650.81 1545.82 1654.43 1545.82 Q1658.06 1545.82 1659.87 1542.27 Q1661.69 1538.71 1661.69 1531.6 Q1661.69 1524.47 1659.87 1520.93 Q1658.06 1517.37 1654.43 1517.37 M1654.43 1513.66 Q1660.24 1513.66 1663.29 1518.27 Q1666.37 1522.85 1666.37 1531.6 Q1666.37 1540.33 1663.29 1544.94 Q1660.24 1549.52 1654.43 1549.52 Q1648.62 1549.52 1645.54 1544.94 Q1642.48 1540.33 1642.48 1531.6 Q1642.48 1522.85 1645.54 1518.27 Q1648.62 1513.66 1654.43 1513.66 Z" fill="#808080" fill-rule="evenodd" fill-opacity="1" /><path clip-path="url(#clip850)" d="M1684.59 1517.37 Q1680.98 1517.37 1679.15 1520.93 Q1677.34 1524.47 1677.34 1531.6 Q1677.34 1538.71 1679.15 1542.27 Q1680.98 1545.82 1684.59 1545.82 Q1688.22 1545.82 1690.03 1542.27 Q1691.86 1538.71 1691.86 1531.6 Q1691.86 1524.47 1690.03 1520.93 Q1688.22 1517.37 1684.59 1517.37 M1684.59 1513.66 Q1690.4 1513.66 1693.45 1518.27 Q1696.53 1522.85 1696.53 1531.6 Q1696.53 1540.33 1693.45 1544.94 Q1690.4 1549.52 1684.59 1549.52 Q1678.78 1549.52 1675.7 1544.94 Q1672.64 1540.33 1672.64 1531.6 Q1672.64 1522.85 1675.7 1518.27 Q1678.78 1513.66 1684.59 1513.66 Z" fill="#808080" fill-rule="evenodd" fill-opacity="1" /><path clip-path="url(#clip850)" d="M1295.97 1517.37 Q1292.36 1517.37 1290.53 1520.93 Q1288.73 1524.47 1288.73 1531.6 Q1288.73 1538.71 1290.53 1542.27 Q1292.36 1545.82 1295.97 1545.82 Q1299.61 1545.82 1301.41 1542.27 Q1303.24 1538.71 1303.24 1531.6 Q1303.24 1524.47 1301.41 1520.93 Q1299.61 1517.37 1295.97 1517.37 M1295.97 1513.66 Q1301.78 1513.66 1304.84 1518.27 Q1307.92 1522.85 1307.92 1531.6 Q1307.92 1540.33 1304.84 1544.94 Q1301.78 1549.52 1295.97 1549.52 Q1290.16 1549.52 1287.08 1544.94 Q1284.03 1540.33 1284.03 1531.6 Q1284.03 1522.85 1287.08 1518.27 Q1290.16 1513.66 1295.97 1513.66 Z" fill="#808080" fill-rule="evenodd" fill-opacity="1" /><path clip-path="url(#clip850)" d="M916.051 1514.29 L934.407 1514.29 L934.407 1518.22 L920.333 1518.22 L920.333 1526.7 Q921.352 1526.35 922.37 1526.19 Q923.389 1526 924.407 1526 Q930.194 1526 933.574 1529.17 Q936.953 1532.34 936.953 1537.76 Q936.953 1543.34 933.481 1546.44 Q930.009 1549.52 923.69 1549.52 Q921.514 1549.52 919.245 1549.15 Q917 1548.78 914.592 1548.04 L914.592 1543.34 Q916.676 1544.47 918.898 1545.03 Q921.12 1545.58 923.597 1545.58 Q927.602 1545.58 929.94 1543.48 Q932.278 1541.37 932.278 1537.76 Q932.278 1534.15 929.94 1532.04 Q927.602 1529.94 923.597 1529.94 Q921.722 1529.94 919.847 1530.35 Q917.995 1530.77 916.051 1531.65 L916.051 1514.29 Z" fill="#808080" fill-rule="evenodd" fill-opacity="1" /><path clip-path="url(#clip850)" d="M956.166 1517.37 Q952.555 1517.37 950.727 1520.93 Q948.921 1524.47 948.921 1531.6 Q948.921 1538.71 950.727 1542.27 Q952.555 1545.82 956.166 1545.82 Q959.801 1545.82 961.606 1542.27 Q963.435 1538.71 963.435 1531.6 Q963.435 1524.47 961.606 1520.93 Q959.801 1517.37 956.166 1517.37 M956.166 1513.66 Q961.976 1513.66 965.032 1518.27 Q968.111 1522.85 968.111 1531.6 Q968.111 1540.33 965.032 1544.94 Q961.976 1549.52 956.166 1549.52 Q950.356 1549.52 947.277 1544.94 Q944.222 1540.33 944.222 1531.6 Q944.222 1522.85 947.277 1518.27 Q950.356 1513.66 956.166 1513.66 Z" fill="#808080" fill-rule="evenodd" fill-opacity="1" /><path clip-path="url(#clip850)" d="M986.328 1517.37 Q982.717 1517.37 980.888 1520.93 Q979.083 1524.47 979.083 1531.6 Q979.083 1538.71 980.888 1542.27 Q982.717 1545.82 986.328 1545.82 Q989.962 1545.82 991.768 1542.27 Q993.597 1538.71 993.597 1531.6 Q993.597 1524.47 991.768 1520.93 Q989.962 1517.37 986.328 1517.37 M986.328 1513.66 Q992.138 1513.66 995.194 1518.27 Q998.273 1522.85 998.273 1531.6 Q998.273 1540.33 995.194 1544.94 Q992.138 1549.52 986.328 1549.52 Q980.518 1549.52 977.439 1544.94 Q974.384 1540.33 974.384 1531.6 Q974.384 1522.85 977.439 1518.27 Q980.518 1513.66 986.328 1513.66 Z" fill="#808080" fill-rule="evenodd" fill-opacity="1" /><path clip-path="url(#clip850)" d="M561.418 1544.91 L569.057 1544.91 L569.057 1518.55 L560.746 1520.21 L560.746 1515.95 L569.01 1514.29 L573.686 1514.29 L573.686 1544.91 L581.325 1544.91 L581.325 1548.85 L561.418 1548.85 L561.418 1544.91 Z" fill="#808080" fill-rule="evenodd" fill-opacity="1" /><path clip-path="url(#clip850)" d="M600.769 1517.37 Q597.158 1517.37 595.33 1520.93 Q593.524 1524.47 593.524 1531.6 Q593.524 1538.71 595.33 1542.27 Q597.158 1545.82 600.769 1545.82 Q604.404 1545.82 606.209 1542.27 Q608.038 1538.71 608.038 1531.6 Q608.038 1524.47 606.209 1520.93 Q604.404 1517.37 600.769 1517.37 M600.769 1513.66 Q606.579 1513.66 609.635 1518.27 Q612.714 1522.85 612.714 1531.6 Q612.714 1540.33 609.635 1544.94 Q606.579 1549.52 600.769 1549.52 Q594.959 1549.52 591.88 1544.94 Q588.825 1540.33 588.825 1531.6 Q588.825 1522.85 591.88 1518.27 Q594.959 1513.66 600.769 1513.66 Z" fill="#808080" fill-rule="evenodd" fill-opacity="1" /><path clip-path="url(#clip850)" d="M630.931 1517.37 Q627.32 1517.37 625.491 1520.93 Q623.686 1524.47 623.686 1531.6 Q623.686 1538.71 625.491 1542.27 Q627.32 1545.82 630.931 1545.82 Q634.565 1545.82 636.371 1542.27 Q638.2 1538.71 638.2 1531.6 Q638.2 1524.47 636.371 1520.93 Q634.565 1517.37 630.931 1517.37 M630.931 1513.66 Q636.741 1513.66 639.797 1518.27 Q642.876 1522.85 642.876 1531.6 Q642.876 1540.33 639.797 1544.94 Q636.741 1549.52 630.931 1549.52 Q625.121 1549.52 622.042 1544.94 Q618.987 1540.33 618.987 1531.6 Q618.987 1522.85 622.042 1518.27 Q625.121 1513.66 630.931 1513.66 Z" fill="#808080" fill-rule="evenodd" fill-opacity="1" /><path clip-path="url(#clip850)" d="M661.093 1517.37 Q657.482 1517.37 655.653 1520.93 Q653.848 1524.47 653.848 1531.6 Q653.848 1538.71 655.653 1542.27 Q657.482 1545.82 661.093 1545.82 Q664.727 1545.82 666.533 1542.27 Q668.362 1538.71 668.362 1531.6 Q668.362 1524.47 666.533 1520.93 Q664.727 1517.37 661.093 1517.37 M661.093 1513.66 Q666.903 1513.66 669.959 1518.27 Q673.037 1522.85 673.037 1531.6 Q673.037 1540.33 669.959 1544.94 Q666.903 1549.52 661.093 1549.52 Q655.283 1549.52 652.204 1544.94 Q649.149 1540.33 649.149 1531.6 Q649.149 1522.85 652.204 1518.27 Q655.283 1513.66 661.093 1513.66 Z" fill="#808080" fill-rule="evenodd" fill-opacity="1" /><path clip-path="url(#clip850)" d="M221.877 1544.91 L229.516 1544.91 L229.516 1518.55 L221.206 1520.21 L221.206 1515.95 L229.47 1514.29 L234.146 1514.29 L234.146 1544.91 L241.784 1544.91 L241.784 1548.85 L221.877 1548.85 L221.877 1544.91 Z" fill="#808080" fill-rule="evenodd" fill-opacity="1" /><path clip-path="url(#clip850)" d="M251.275 1514.29 L269.631 1514.29 L269.631 1518.22 L255.557 1518.22 L255.557 1526.7 Q256.576 1526.35 257.594 1526.19 Q258.613 1526 259.632 1526 Q265.419 1526 268.798 1529.17 Q272.178 1532.34 272.178 1537.76 Q272.178 1543.34 268.706 1546.44 Q265.233 1549.52 258.914 1549.52 Q256.738 1549.52 254.469 1549.15 Q252.224 1548.78 249.817 1548.04 L249.817 1543.34 Q251.9 1544.47 254.122 1545.03 Q256.344 1545.58 258.821 1545.58 Q262.826 1545.58 265.164 1543.48 Q267.502 1541.37 267.502 1537.76 Q267.502 1534.15 265.164 1532.04 Q262.826 1529.94 258.821 1529.94 Q256.946 1529.94 255.071 1530.35 Q253.219 1530.77 251.275 1531.65 L251.275 1514.29 Z" fill="#808080" fill-rule="evenodd" fill-opacity="1" /><path clip-path="url(#clip850)" d="M291.391 1517.37 Q287.779 1517.37 285.951 1520.93 Q284.145 1524.47 284.145 1531.6 Q284.145 1538.71 285.951 1542.27 Q287.779 1545.82 291.391 1545.82 Q295.025 1545.82 296.83 1542.27 Q298.659 1538.71 298.659 1531.6 Q298.659 1524.47 296.83 1520.93 Q295.025 1517.37 291.391 1517.37 M291.391 1513.66 Q297.201 1513.66 300.256 1518.27 Q303.335 1522.85 303.335 1531.6 Q303.335 1540.33 300.256 1544.94 Q297.201 1549.52 291.391 1549.52 Q285.58 1549.52 282.502 1544.94 Q279.446 1540.33 279.446 1531.6 Q279.446 1522.85 282.502 1518.27 Q285.58 1513.66 291.391 1513.66 Z" fill="#808080" fill-rule="evenodd" fill-opacity="1" /><path clip-path="url(#clip850)" d="M321.552 1517.37 Q317.941 1517.37 316.113 1520.93 Q314.307 1524.47 314.307 1531.6 Q314.307 1538.71 316.113 1542.27 Q317.941 1545.82 321.552 1545.82 Q325.187 1545.82 326.992 1542.27 Q328.821 1538.71 328.821 1531.6 Q328.821 1524.47 326.992 1520.93 Q325.187 1517.37 321.552 1517.37 M321.552 1513.66 Q327.363 1513.66 330.418 1518.27 Q333.497 1522.85 333.497 1531.6 Q333.497 1540.33 330.418 1544.94 Q327.363 1549.52 321.552 1549.52 Q315.742 1549.52 312.664 1544.94 Q309.608 1540.33 309.608 1531.6 Q309.608 1522.85 312.664 1518.27 Q315.742 1513.66 321.552 1513.66 Z" fill="#808080" fill-rule="evenodd" fill-opacity="1" /><polyline clip-path="url(#clip852)" style="stroke:#808080; stroke-linecap:butt; stroke-linejoin:round; stroke-width:2; stroke-opacity:0.1; fill:none" points="
  2352.76,1445.72 239.19,1445.72 
  "/>
<polyline clip-path="url(#clip852)" style="stroke:#808080; stroke-linecap:butt; stroke-linejoin:round; stroke-width:2; stroke-opacity:0.1; fill:none" points="
  2352.76,1106.18 239.19,1106.18 
  "/>
<polyline clip-path="url(#clip852)" style="stroke:#808080; stroke-linecap:butt; stroke-linejoin:round; stroke-width:2; stroke-opacity:0.1; fill:none" points="
  2352.76,766.634 239.19,766.634 
  "/>
<polyline clip-path="url(#clip852)" style="stroke:#808080; stroke-linecap:butt; stroke-linejoin:round; stroke-width:2; stroke-opacity:0.1; fill:none" points="
  2352.76,427.094 239.19,427.094 
  "/>
<polyline clip-path="url(#clip852)" style="stroke:#808080; stroke-linecap:butt; stroke-linejoin:round; stroke-width:2; stroke-opacity:0.1; fill:none" points="
  2352.76,87.5533 239.19,87.5533 
  "/>
<polyline clip-path="url(#clip850)" style="stroke:#808080; stroke-linecap:butt; stroke-linejoin:round; stroke-width:4; stroke-opacity:1; fill:none" points="
  239.19,1486.45 239.19,47.2441 
  "/>
<polyline clip-path="url(#clip850)" style="stroke:#808080; stroke-linecap:butt; stroke-linejoin:round; stroke-width:4; stroke-opacity:1; fill:none" points="
  239.19,1445.72 258.088,1445.72 
  "/>
<polyline clip-path="url(#clip850)" style="stroke:#808080; stroke-linecap:butt; stroke-linejoin:round; stroke-width:4; stroke-opacity:1; fill:none" points="
  239.19,1106.18 258.088,1106.18 
  "/>
<polyline clip-path="url(#clip850)" style="stroke:#808080; stroke-linecap:butt; stroke-linejoin:round; stroke-width:4; stroke-opacity:1; fill:none" points="
  239.19,766.634 258.088,766.634 
  "/>
<polyline clip-path="url(#clip850)" style="stroke:#808080; stroke-linecap:butt; stroke-linejoin:round; stroke-width:4; stroke-opacity:1; fill:none" points="
  239.19,427.094 258.088,427.094 
  "/>
<polyline clip-path="url(#clip850)" style="stroke:#808080; stroke-linecap:butt; stroke-linejoin:round; stroke-width:4; stroke-opacity:1; fill:none" points="
  239.19,87.5533 258.088,87.5533 
  "/>
<path clip-path="url(#clip850)" d="M50.9921 1446.17 L80.6679 1446.17 L80.6679 1450.1 L50.9921 1450.1 L50.9921 1446.17 Z" fill="#808080" fill-rule="evenodd" fill-opacity="1" /><path clip-path="url(#clip850)" d="M91.5706 1459.06 L99.2095 1459.06 L99.2095 1432.69 L90.8993 1434.36 L90.8993 1430.1 L99.1632 1428.44 L103.839 1428.44 L103.839 1459.06 L111.478 1459.06 L111.478 1463 L91.5706 1463 L91.5706 1459.06 Z" fill="#808080" fill-rule="evenodd" fill-opacity="1" /><path clip-path="url(#clip850)" d="M130.922 1431.51 Q127.311 1431.51 125.482 1435.08 Q123.677 1438.62 123.677 1445.75 Q123.677 1452.86 125.482 1456.42 Q127.311 1459.96 130.922 1459.96 Q134.556 1459.96 136.362 1456.42 Q138.191 1452.86 138.191 1445.75 Q138.191 1438.62 136.362 1435.08 Q134.556 1431.51 130.922 1431.51 M130.922 1427.81 Q136.732 1427.81 139.788 1432.42 Q142.867 1437 142.867 1445.75 Q142.867 1454.48 139.788 1459.08 Q136.732 1463.67 130.922 1463.67 Q125.112 1463.67 122.033 1459.08 Q118.978 1454.48 118.978 1445.75 Q118.978 1437 122.033 1432.42 Q125.112 1427.81 130.922 1427.81 Z" fill="#808080" fill-rule="evenodd" fill-opacity="1" /><path clip-path="url(#clip850)" d="M161.084 1431.51 Q157.473 1431.51 155.644 1435.08 Q153.839 1438.62 153.839 1445.75 Q153.839 1452.86 155.644 1456.42 Q157.473 1459.96 161.084 1459.96 Q164.718 1459.96 166.524 1456.42 Q168.353 1452.86 168.353 1445.75 Q168.353 1438.62 166.524 1435.08 Q164.718 1431.51 161.084 1431.51 M161.084 1427.81 Q166.894 1427.81 169.95 1432.42 Q173.029 1437 173.029 1445.75 Q173.029 1454.48 169.95 1459.08 Q166.894 1463.67 161.084 1463.67 Q155.274 1463.67 152.195 1459.08 Q149.14 1454.48 149.14 1445.75 Q149.14 1437 152.195 1432.42 Q155.274 1427.81 161.084 1427.81 Z" fill="#808080" fill-rule="evenodd" fill-opacity="1" /><path clip-path="url(#clip850)" d="M191.246 1431.51 Q187.635 1431.51 185.806 1435.08 Q184.001 1438.62 184.001 1445.75 Q184.001 1452.86 185.806 1456.42 Q187.635 1459.96 191.246 1459.96 Q194.88 1459.96 196.686 1456.42 Q198.514 1452.86 198.514 1445.75 Q198.514 1438.62 196.686 1435.08 Q194.88 1431.51 191.246 1431.51 M191.246 1427.81 Q197.056 1427.81 200.112 1432.42 Q203.19 1437 203.19 1445.75 Q203.19 1454.48 200.112 1459.08 Q197.056 1463.67 191.246 1463.67 Q185.436 1463.67 182.357 1459.08 Q179.302 1454.48 179.302 1445.75 Q179.302 1437 182.357 1432.42 Q185.436 1427.81 191.246 1427.81 Z" fill="#808080" fill-rule="evenodd" fill-opacity="1" /><path clip-path="url(#clip850)" d="M81.154 1106.63 L110.83 1106.63 L110.83 1110.56 L81.154 1110.56 L81.154 1106.63 Z" fill="#808080" fill-rule="evenodd" fill-opacity="1" /><path clip-path="url(#clip850)" d="M120.969 1088.9 L139.325 1088.9 L139.325 1092.83 L125.251 1092.83 L125.251 1101.3 Q126.27 1100.96 127.288 1100.79 Q128.307 1100.61 129.325 1100.61 Q135.112 1100.61 138.492 1103.78 Q141.871 1106.95 141.871 1112.37 Q141.871 1117.95 138.399 1121.05 Q134.927 1124.13 128.607 1124.13 Q126.432 1124.13 124.163 1123.76 Q121.918 1123.39 119.51 1122.64 L119.51 1117.95 Q121.594 1119.08 123.816 1119.64 Q126.038 1120.19 128.515 1120.19 Q132.519 1120.19 134.857 1118.08 Q137.195 1115.98 137.195 1112.37 Q137.195 1108.76 134.857 1106.65 Q132.519 1104.54 128.515 1104.54 Q126.64 1104.54 124.765 1104.96 Q122.913 1105.38 120.969 1106.26 L120.969 1088.9 Z" fill="#808080" fill-rule="evenodd" fill-opacity="1" /><path clip-path="url(#clip850)" d="M161.084 1091.97 Q157.473 1091.97 155.644 1095.54 Q153.839 1099.08 153.839 1106.21 Q153.839 1113.32 155.644 1116.88 Q157.473 1120.42 161.084 1120.42 Q164.718 1120.42 166.524 1116.88 Q168.353 1113.32 168.353 1106.21 Q168.353 1099.08 166.524 1095.54 Q164.718 1091.97 161.084 1091.97 M161.084 1088.27 Q166.894 1088.27 169.95 1092.88 Q173.029 1097.46 173.029 1106.21 Q173.029 1114.94 169.95 1119.54 Q166.894 1124.13 161.084 1124.13 Q155.274 1124.13 152.195 1119.54 Q149.14 1114.94 149.14 1106.21 Q149.14 1097.46 152.195 1092.88 Q155.274 1088.27 161.084 1088.27 Z" fill="#808080" fill-rule="evenodd" fill-opacity="1" /><path clip-path="url(#clip850)" d="M191.246 1091.97 Q187.635 1091.97 185.806 1095.54 Q184.001 1099.08 184.001 1106.21 Q184.001 1113.32 185.806 1116.88 Q187.635 1120.42 191.246 1120.42 Q194.88 1120.42 196.686 1116.88 Q198.514 1113.32 198.514 1106.21 Q198.514 1099.08 196.686 1095.54 Q194.88 1091.97 191.246 1091.97 M191.246 1088.27 Q197.056 1088.27 200.112 1092.88 Q203.19 1097.46 203.19 1106.21 Q203.19 1114.94 200.112 1119.54 Q197.056 1124.13 191.246 1124.13 Q185.436 1124.13 182.357 1119.54 Q179.302 1114.94 179.302 1106.21 Q179.302 1097.46 182.357 1092.88 Q185.436 1088.27 191.246 1088.27 Z" fill="#808080" fill-rule="evenodd" fill-opacity="1" /><path clip-path="url(#clip850)" d="M191.246 752.433 Q187.635 752.433 185.806 755.998 Q184.001 759.54 184.001 766.669 Q184.001 773.776 185.806 777.34 Q187.635 780.882 191.246 780.882 Q194.88 780.882 196.686 777.34 Q198.514 773.776 198.514 766.669 Q198.514 759.54 196.686 755.998 Q194.88 752.433 191.246 752.433 M191.246 748.729 Q197.056 748.729 200.112 753.336 Q203.19 757.919 203.19 766.669 Q203.19 775.396 200.112 780.002 Q197.056 784.586 191.246 784.586 Q185.436 784.586 182.357 780.002 Q179.302 775.396 179.302 766.669 Q179.302 757.919 182.357 753.336 Q185.436 748.729 191.246 748.729 Z" fill="#808080" fill-rule="evenodd" fill-opacity="1" /><path clip-path="url(#clip850)" d="M120.969 409.814 L139.325 409.814 L139.325 413.749 L125.251 413.749 L125.251 422.221 Q126.27 421.874 127.288 421.712 Q128.307 421.527 129.325 421.527 Q135.112 421.527 138.492 424.698 Q141.871 427.869 141.871 433.286 Q141.871 438.865 138.399 441.966 Q134.927 445.045 128.607 445.045 Q126.432 445.045 124.163 444.675 Q121.918 444.304 119.51 443.564 L119.51 438.865 Q121.594 439.999 123.816 440.554 Q126.038 441.11 128.515 441.11 Q132.519 441.11 134.857 439.004 Q137.195 436.897 137.195 433.286 Q137.195 429.675 134.857 427.568 Q132.519 425.462 128.515 425.462 Q126.64 425.462 124.765 425.879 Q122.913 426.295 120.969 427.175 L120.969 409.814 Z" fill="#808080" fill-rule="evenodd" fill-opacity="1" /><path clip-path="url(#clip850)" d="M161.084 412.893 Q157.473 412.893 155.644 416.457 Q153.839 419.999 153.839 427.129 Q153.839 434.235 155.644 437.8 Q157.473 441.341 161.084 441.341 Q164.718 441.341 166.524 437.8 Q168.353 434.235 168.353 427.129 Q168.353 419.999 166.524 416.457 Q164.718 412.893 161.084 412.893 M161.084 409.189 Q166.894 409.189 169.95 413.795 Q173.029 418.379 173.029 427.129 Q173.029 435.855 169.95 440.462 Q166.894 445.045 161.084 445.045 Q155.274 445.045 152.195 440.462 Q149.14 435.855 149.14 427.129 Q149.14 418.379 152.195 413.795 Q155.274 409.189 161.084 409.189 Z" fill="#808080" fill-rule="evenodd" fill-opacity="1" /><path clip-path="url(#clip850)" d="M191.246 412.893 Q187.635 412.893 185.806 416.457 Q184.001 419.999 184.001 427.129 Q184.001 434.235 185.806 437.8 Q187.635 441.341 191.246 441.341 Q194.88 441.341 196.686 437.8 Q198.514 434.235 198.514 427.129 Q198.514 419.999 196.686 416.457 Q194.88 412.893 191.246 412.893 M191.246 409.189 Q197.056 409.189 200.112 413.795 Q203.19 418.379 203.19 427.129 Q203.19 435.855 200.112 440.462 Q197.056 445.045 191.246 445.045 Q185.436 445.045 182.357 440.462 Q179.302 435.855 179.302 427.129 Q179.302 418.379 182.357 413.795 Q185.436 409.189 191.246 409.189 Z" fill="#808080" fill-rule="evenodd" fill-opacity="1" /><path clip-path="url(#clip850)" d="M91.5706 100.898 L99.2095 100.898 L99.2095 74.5325 L90.8993 76.1991 L90.8993 71.9399 L99.1632 70.2733 L103.839 70.2733 L103.839 100.898 L111.478 100.898 L111.478 104.833 L91.5706 104.833 L91.5706 100.898 Z" fill="#808080" fill-rule="evenodd" fill-opacity="1" /><path clip-path="url(#clip850)" d="M130.922 73.3519 Q127.311 73.3519 125.482 76.9167 Q123.677 80.4584 123.677 87.588 Q123.677 94.6944 125.482 98.2592 Q127.311 101.801 130.922 101.801 Q134.556 101.801 136.362 98.2592 Q138.191 94.6944 138.191 87.588 Q138.191 80.4584 136.362 76.9167 Q134.556 73.3519 130.922 73.3519 M130.922 69.6483 Q136.732 69.6483 139.788 74.2547 Q142.867 78.838 142.867 87.588 Q142.867 96.3148 139.788 100.921 Q136.732 105.505 130.922 105.505 Q125.112 105.505 122.033 100.921 Q118.978 96.3148 118.978 87.588 Q118.978 78.838 122.033 74.2547 Q125.112 69.6483 130.922 69.6483 Z" fill="#808080" fill-rule="evenodd" fill-opacity="1" /><path clip-path="url(#clip850)" d="M161.084 73.3519 Q157.473 73.3519 155.644 76.9167 Q153.839 80.4584 153.839 87.588 Q153.839 94.6944 155.644 98.2592 Q157.473 101.801 161.084 101.801 Q164.718 101.801 166.524 98.2592 Q168.353 94.6944 168.353 87.588 Q168.353 80.4584 166.524 76.9167 Q164.718 73.3519 161.084 73.3519 M161.084 69.6483 Q166.894 69.6483 169.95 74.2547 Q173.029 78.838 173.029 87.588 Q173.029 96.3148 169.95 100.921 Q166.894 105.505 161.084 105.505 Q155.274 105.505 152.195 100.921 Q149.14 96.3148 149.14 87.588 Q149.14 78.838 152.195 74.2547 Q155.274 69.6483 161.084 69.6483 Z" fill="#808080" fill-rule="evenodd" fill-opacity="1" /><path clip-path="url(#clip850)" d="M191.246 73.3519 Q187.635 73.3519 185.806 76.9167 Q184.001 80.4584 184.001 87.588 Q184.001 94.6944 185.806 98.2592 Q187.635 101.801 191.246 101.801 Q194.88 101.801 196.686 98.2592 Q198.514 94.6944 198.514 87.588 Q198.514 80.4584 196.686 76.9167 Q194.88 73.3519 191.246 73.3519 M191.246 69.6483 Q197.056 69.6483 200.112 74.2547 Q203.19 78.838 203.19 87.588 Q203.19 96.3148 200.112 100.921 Q197.056 105.505 191.246 105.505 Q185.436 105.505 182.357 100.921 Q179.302 96.3148 179.302 87.588 Q179.302 78.838 182.357 74.2547 Q185.436 69.6483 191.246 69.6483 Z" fill="#808080" fill-rule="evenodd" fill-opacity="1" /><polyline clip-path="url(#clip852)" style="stroke:#009af9; stroke-linecap:butt; stroke-linejoin:round; stroke-width:4; stroke-opacity:1; fill:none" points="
  1295.97,1445.72 1343.87,1444.02 1391.54,1438.96 1438.72,1430.54 1485.2,1418.82 1530.73,1403.85 1575.1,1385.7 1618.07,1364.47 1659.44,1340.26 1699,1313.19 
  1736.55,1283.4 1771.9,1251.04 1804.88,1216.26 1835.33,1179.24 1863.09,1140.17 1888.03,1099.23 1910.02,1056.64 1928.94,1012.6 1944.72,967.342 1957.26,921.081 
  1966.51,874.05 1972.41,826.484 1974.95,778.619 1974.1,730.695 1969.88,682.95 1962.3,635.622 1951.4,588.947 1937.23,543.156 1919.87,498.48 1899.4,455.139 
  1875.92,413.35 1849.56,373.321 1820.43,335.251 1788.7,299.331 1754.51,265.738 1718.03,234.642 1679.46,206.195 1638.97,180.541 1596.77,157.806 1553.08,138.105 
  1508.1,121.535 1462.07,108.178 1415.21,98.1026 1367.75,91.3573 1319.94,87.9763 1272.01,87.9763 1224.2,91.3573 1176.74,98.1026 1129.88,108.178 1083.85,121.535 
  1038.87,138.105 995.175,157.806 952.979,180.541 912.49,206.195 873.913,234.642 837.438,265.738 803.248,299.331 771.512,335.251 742.389,373.321 716.024,413.35 
  692.548,455.139 672.079,498.48 654.717,543.156 640.551,588.947 629.65,635.622 622.068,682.95 617.844,730.695 616.998,778.619 619.534,826.484 625.441,874.05 
  634.688,921.081 647.23,967.342 663.004,1012.6 681.931,1056.64 703.917,1099.23 728.853,1140.17 756.614,1179.24 787.063,1216.26 820.046,1251.04 855.401,1283.4 
  892.951,1313.19 932.508,1340.26 973.876,1364.47 1016.85,1385.7 1061.21,1403.85 1106.75,1418.82 1153.22,1430.54 1200.41,1438.96 1248.07,1444.02 1295.97,1445.72 
  
  "/>
<path clip-path="url(#clip850)" d="
M1995.03 198.898 L2282.3 198.898 L2282.3 95.2176 L1995.03 95.2176  Z
  " fill="#000000" fill-rule="evenodd" fill-opacity="0"/>
<polyline clip-path="url(#clip850)" style="stroke:#808080; stroke-linecap:butt; stroke-linejoin:round; stroke-width:4; stroke-opacity:1; fill:none" points="
  1995.03,198.898 2282.3,198.898 2282.3,95.2176 1995.03,95.2176 1995.03,198.898 
  "/>
<polyline clip-path="url(#clip850)" style="stroke:#009af9; stroke-linecap:butt; stroke-linejoin:round; stroke-width:4; stroke-opacity:1; fill:none" points="
  2018.52,147.058 2159.42,147.058 
  "/>
<path clip-path="url(#clip850)" d="M2196.75 166.745 Q2194.94 171.375 2193.23 172.787 Q2191.52 174.199 2188.65 174.199 L2185.24 174.199 L2185.24 170.634 L2187.74 170.634 Q2189.5 170.634 2190.47 169.8 Q2191.45 168.967 2192.63 165.865 L2193.39 163.921 L2182.91 138.412 L2187.42 138.412 L2195.52 158.689 L2203.62 138.412 L2208.14 138.412 L2196.75 166.745 Z" fill="#808080" fill-rule="evenodd" fill-opacity="1" /><path clip-path="url(#clip850)" d="M2215.43 160.402 L2223.07 160.402 L2223.07 134.037 L2214.76 135.703 L2214.76 131.444 L2223.02 129.778 L2227.7 129.778 L2227.7 160.402 L2235.34 160.402 L2235.34 164.338 L2215.43 164.338 L2215.43 160.402 Z" fill="#808080" fill-rule="evenodd" fill-opacity="1" /></svg>
